<svg width="49" height="49" viewBox="0 0 49 49" fill="none" xmlns="http://www.w3.org/2000/svg">
<path d="M32 9.5C32 10.4849 31.806 11.4602 31.4291 12.3701C31.0522 13.2801 30.4997 14.1069 29.8033 14.8033C29.1069 15.4997 28.2801 16.0522 27.3701 16.4291C26.4602 16.806 25.4849 17 24.5 17C23.5151 17 22.5398 16.806 21.6299 16.4291C20.7199 16.0522 19.8931 15.4997 19.1967 14.8033C18.5003 14.1069 17.9478 13.2801 17.5709 12.3701C17.194 11.4602 17 10.4849 17 9.5C17 8.51509 17.194 7.53982 17.5709 6.62987C17.9478 5.71993 18.5003 4.89314 19.1967 4.1967C19.8931 3.50026 20.7199 2.94781 21.6299 2.5709C22.5398 2.19399 23.5151 2 24.5 2C25.4849 2 26.4602 2.19399 27.3701 2.5709C28.2801 2.94781 29.1069 3.50026 29.8033 4.1967C30.4997 4.89314 31.0522 5.71993 31.4291 6.62988C31.806 7.53982 32 8.51509 32 9.5L32 9.5Z" stroke="#FFBD4E" stroke-width="3" stroke-linecap="round" stroke-linejoin="round"/>
<path d="M24.5 17V35.75" stroke="#FFBD4E" stroke-width="3" stroke-linecap="round"/>
<path d="M14.5 28.25C7.09141 29.8508 2 33.3764 2 37.2174C2 42.6202 12.0736 47 24.5 47C36.9264 47 47 42.6202 47 37.2174C47 33.3764 41.9086 29.8508 34.5 28.25" stroke="#FFBD4E" stroke-width="3" stroke-linecap="round" stroke-linejoin="round"/>
</svg>
