<svg width="15" height="20" viewBox="0 0 15 20" fill="none" xmlns="http://www.w3.org/2000/svg">
<path d="M7.51367 19.0035C6.25061 17.9261 5.07987 16.745 4.01367 15.4725C2.41367 13.5615 0.513673 10.7155 0.513673 8.00351C0.512979 6.61847 0.923181 5.26436 1.69237 4.11254C2.46155 2.96072 3.55514 2.06297 4.83474 1.53291C6.11434 1.00285 7.52242 0.8643 8.88079 1.1348C10.2392 1.4053 11.4867 2.07269 12.4657 3.05251C13.1174 3.70137 13.634 4.47305 13.9856 5.32288C14.3371 6.17272 14.5166 7.08384 14.5137 8.00351C14.5137 10.7155 12.6137 13.5615 11.0137 15.4725C9.94748 16.745 8.77673 17.9261 7.51367 19.0035ZM7.51367 5.00351C6.71802 5.00351 5.95496 5.31958 5.39235 5.88219C4.82974 6.4448 4.51367 7.20786 4.51367 8.00351C4.51367 8.79916 4.82974 9.56222 5.39235 10.1248C5.95496 10.6874 6.71802 11.0035 7.51367 11.0035C8.30932 11.0035 9.07238 10.6874 9.63499 10.1248C10.1976 9.56222 10.5137 8.79916 10.5137 8.00351C10.5137 7.20786 10.1976 6.4448 9.63499 5.88219C9.07238 5.31958 8.30932 5.00351 7.51367 5.00351Z" stroke="#FFBD4E"/>
</svg>
