<svg width="21" height="20" viewBox="0 0 21 20" fill="none" xmlns="http://www.w3.org/2000/svg">
<g clip-path="url(#clip0_92_78)">
<path d="M19.0137 3.75H4.01367C3.68215 3.75 3.36421 3.8817 3.12979 4.11612C2.89537 4.35054 2.76367 4.66848 2.76367 5V15C2.76367 15.3315 2.89537 15.6495 3.12979 15.8839C3.36421 16.1183 3.68215 16.25 4.01367 16.25H19.0137C19.3452 16.25 19.6631 16.1183 19.8976 15.8839C20.132 15.6495 20.2637 15.3315 20.2637 15V5C20.2637 4.66848 20.132 4.35054 19.8976 4.11612C19.6631 3.8817 19.3452 3.75 19.0137 3.75ZM17.6387 5L11.5137 9.2375L5.38867 5H17.6387Z" fill="#FFBD4E"/>
<path d="M4.01367 14.9996V5.56836L11.1574 10.5121C11.262 10.5847 11.3863 10.6236 11.5137 10.6236C11.641 10.6236 11.7653 10.5847 11.8699 10.5121L19.0137 5.56836V14.9996H4.01367Z" fill="#262626"/>
</g>
<defs>
<clipPath id="clip0_92_78">
<rect width="20.0236" height="20" fill="white" transform="translate(0.820312)"/>
</clipPath>
</defs>
</svg>
