<svg width="19" height="18" viewBox="0 0 19 18" fill="none" xmlns="http://www.w3.org/2000/svg">
<g clip-path="url(#clip0_92_70)">
<path d="M15.3801 17.7196C15.212 17.7191 15.0444 17.7007 14.8801 17.6646C11.7534 17.0178 8.87293 15.5013 6.57013 13.2896C4.31646 11.0731 2.75342 8.25091 2.07013 5.16461C1.98956 4.77997 2.00933 4.38106 2.12755 4.00627C2.24577 3.63148 2.45845 3.29342 2.74513 3.02461L4.74513 1.09961C4.84728 1.00301 4.96866 0.929028 5.10134 0.882505C5.23401 0.835981 5.37501 0.817959 5.51513 0.829614C5.66041 0.84477 5.80061 0.89157 5.92586 0.966723C6.05112 1.04188 6.15839 1.14356 6.24013 1.26461L8.74013 4.95961C8.83388 5.10299 8.87913 5.27266 8.86923 5.44368C8.85933 5.6147 8.7948 5.77802 8.68513 5.90961L7.43013 7.40961C7.92995 8.51584 8.6378 9.51565 9.51513 10.3546C10.3868 11.224 11.417 11.9182 12.5501 12.3996L14.1051 11.1646C14.2357 11.0614 14.3947 11.0004 14.5608 10.9897C14.7269 10.9789 14.8923 11.019 15.0351 11.1046L18.8101 13.5446C18.9397 13.622 19.05 13.7276 19.133 13.8537C19.2159 13.9797 19.2692 14.1229 19.2889 14.2725C19.3086 14.4221 19.2942 14.5742 19.2468 14.7174C19.1994 14.8607 19.1202 14.9913 19.0151 15.0996L17.0651 17.0296C16.8436 17.25 16.5807 17.4245 16.2915 17.5429C16.0024 17.6613 15.6926 17.7214 15.3801 17.7196Z" fill="#FFBD4E"/>
<path d="M5.43352 1.82031L3.43351 3.74531C3.27224 3.89559 3.15286 4.08525 3.08711 4.29565C3.02136 4.50606 3.0115 4.72995 3.05851 4.94531C3.69388 7.84138 5.15437 10.4915 7.26351 12.5753C9.43061 14.6561 12.1413 16.0825 15.0835 16.6903C15.3062 16.7369 15.537 16.7274 15.7552 16.6629C15.9733 16.5983 16.172 16.4806 16.3335 16.3203L18.2835 14.3903L14.6385 12.0353L12.9685 13.3653C12.9046 13.4159 12.8292 13.4501 12.7491 13.4649C12.6689 13.4797 12.5863 13.4747 12.5085 13.4503C11.1219 12.9394 9.86524 12.1284 8.82852 11.0753C7.75619 10.0739 6.92383 8.84332 6.39352 7.47531C6.37108 7.39249 6.37033 7.3053 6.39135 7.22211C6.41237 7.13892 6.45444 7.06254 6.51352 7.00031L7.86351 5.38531L5.43352 1.82031Z" fill="#262626"/>
</g>
<defs>
<clipPath id="clip0_92_70">
<rect width="18.0213" height="18" fill="white" transform="translate(0.820312)"/>
</clipPath>
</defs>
</svg>
