<svg width="43" height="38" viewBox="0 0 43 38" fill="none" xmlns="http://www.w3.org/2000/svg">
<path d="M40 16.5C41.3807 16.5 42.5 17.6193 42.5 19C42.5 20.3807 41.3807 21.5 40 21.5V16.5ZM1.23223 20.7678C0.255924 19.7915 0.255924 18.2085 1.23223 17.2322L17.1421 1.32233C18.1184 0.34602 19.7014 0.34602 20.6777 1.32233C21.654 2.29864 21.654 3.88155 20.6777 4.85786L6.53553 19L20.6777 33.1421C21.654 34.1184 21.654 35.7014 20.6777 36.6777C19.7014 37.654 18.1184 37.654 17.1421 36.6777L1.23223 20.7678ZM40 21.5H3V16.5H40V21.5Z" fill="black"/>
</svg>
