<svg width="22" height="20" viewBox="0 0 22 20" fill="none" xmlns="http://www.w3.org/2000/svg">
<path d="M0.00416013 9.23424C0.076719 9.84803 0.83095 10.1303 0.83095 10.1303L5.62365 11.827L0.00416013 9.23424ZM0.00416013 9.23424C-0.0693535 8.61945 0.855772 8.28694 0.855772 8.28694L0.00416013 9.23424ZM16.9579 19.4026L9.39475 13.3012C11.4192 11.3869 18.501 4.68649 18.8416 4.35234L18.8417 4.35226C19.0133 4.18378 19.1546 3.99585 19.2261 3.79431C19.2966 3.59552 19.3242 3.28126 19.0844 3.04042C18.8678 2.82286 18.5781 2.81908 18.3929 2.84981C18.1894 2.88357 17.9798 2.97564 17.7774 3.10491L17.7773 3.10482L17.7687 3.11057L5.55426 11.272L1.00635 9.662L0.995697 9.65756C0.982943 9.65208 0.962283 9.64281 0.936235 9.62973C0.883126 9.60308 0.813103 9.56338 0.74356 9.51155C0.592367 9.39886 0.51345 9.28338 0.500703 9.17554L0.500624 9.17488C0.49826 9.15511 0.50476 9.07252 0.694636 8.93575C0.774121 8.87849 0.859403 8.8323 0.927448 8.79988C0.960658 8.78405 0.987825 8.77242 1.00553 8.76518L1.02407 8.75781L1.02586 8.75712L1.02651 8.75688L1.02653 8.75688L1.02688 8.75675L1.03581 8.75354L1.04654 8.74911L20.5849 0.684468L20.5945 0.680502L20.6029 0.676653L20.6031 0.676526L20.6035 0.676366L20.6037 0.676261L20.6039 0.676168L20.604 0.67614L20.6123 0.672452C20.6206 0.668831 20.6341 0.663072 20.6519 0.655799C20.6878 0.641181 20.7404 0.620865 20.8038 0.599627C20.9352 0.555634 21.0929 0.514576 21.2368 0.503094C21.3923 0.490695 21.4548 0.518718 21.4664 0.526664C21.4678 0.527565 21.468 0.527918 21.4683 0.528183L21.4683 0.528235C21.4685 0.528515 21.4713 0.53176 21.4753 0.540574C21.4823 0.556053 21.4953 0.594129 21.499 0.667133L18.0394 19.0181C18.0294 19.0386 18.0146 19.0669 17.9948 19.0996C17.947 19.179 17.8776 19.2721 17.7874 19.3481C17.7 19.4216 17.598 19.4755 17.4736 19.4934C17.3589 19.5099 17.1915 19.5007 16.9579 19.4026Z" fill="#FFBD4E" stroke="#FFBD4E"/>
</svg>
