<svg width="21" height="21" viewBox="0 0 21 21" fill="none" xmlns="http://www.w3.org/2000/svg">
<path d="M1.94598 15.735L2.0002 15.5351L1.89716 15.3554C1.06078 13.8969 0.57317 12.1593 0.57317 10.4271C0.57317 4.94445 5.0306 0.5 10.5366 0.5C13.1839 0.5 15.6914 1.54069 17.5739 3.41667C19.4494 5.28568 20.4285 7.78243 20.5 10.361C20.4963 15.8405 16.0403 20.2812 10.5366 20.2812C8.86525 20.2812 7.26133 19.8652 5.79235 19.0984L5.62105 19.009L5.43414 19.058L0.708657 20.2973L1.94598 15.735ZM12.0344 15.777L12.0658 15.7895L12.0986 15.7977C12.7523 15.9605 13.4046 15.962 13.9059 15.8795C14.2621 15.8272 14.7139 15.6225 15.0912 15.3752C15.4603 15.1332 15.8855 14.768 16.0533 14.3219C16.1797 13.9862 16.2447 13.6669 16.2667 13.3929C16.2878 13.1303 16.2722 12.873 16.2059 12.6747L16.1684 12.5626L16.0846 12.4792C15.9959 12.3907 15.8891 12.3267 15.8001 12.2774C15.7112 12.2282 15.598 12.1716 15.4659 12.1058C15.3014 12.0036 14.9127 11.8028 14.5644 11.6293C14.37 11.5324 14.1743 11.4372 14.012 11.361C13.8626 11.2909 13.7099 11.2217 13.621 11.1922C13.6153 11.1903 13.609 11.1881 13.602 11.1857C13.5093 11.1543 13.3075 11.0859 13.0982 11.1049C12.967 11.1168 12.8291 11.161 12.7027 11.2547C12.5803 11.3454 12.4935 11.464 12.4311 11.5883C12.3863 11.6777 12.2563 11.8567 12.0892 12.0603C11.9392 12.243 11.7946 12.4031 11.7309 12.4683C11.7248 12.4655 11.7181 12.4624 11.7108 12.4587C11.6591 12.433 11.597 12.4047 11.5252 12.372C11.1486 12.2007 10.5045 11.9076 9.69616 11.2183C9.01185 10.597 8.55858 9.92253 8.39131 9.62497C8.39463 9.62164 8.3981 9.61819 8.40172 9.61458C8.4425 9.57394 8.48116 9.5262 8.50745 9.49316C8.52656 9.46916 8.54875 9.44058 8.56985 9.41339C8.57976 9.40063 8.58942 9.38817 8.59842 9.37665C8.6625 9.29455 8.71878 9.22571 8.76757 9.17708C8.9718 8.97356 9.07557 8.76655 9.14856 8.62093C9.15046 8.61713 9.15235 8.61337 9.15422 8.60965C9.29818 8.32271 9.29818 8.01062 9.15422 7.72369L9.11779 7.65109L9.10652 7.63986C9.09002 7.60567 9.06765 7.55641 9.03972 7.49249C8.9804 7.35676 8.90448 7.17439 8.8223 6.97418C8.7715 6.85045 8.71819 6.71957 8.66548 6.59018C8.55053 6.30801 8.43848 6.03292 8.36176 5.85454C8.22923 5.54637 8.05177 5.30567 7.78862 5.18647C7.55785 5.08194 7.27939 5.11458 7.31707 5.11458H7.31621H7.31535H7.31449H7.31363H7.31276H7.3119H7.31103H7.31016H7.30929H7.30841H7.30754H7.30666H7.30578H7.3049H7.30402H7.30314H7.30226H7.30137H7.30048H7.29959H7.2987H7.29781H7.29692H7.29602H7.29513H7.29423H7.29333H7.29243H7.29153H7.29062H7.28972H7.28881H7.2879H7.28699H7.28608H7.28517H7.28425H7.28334H7.28242H7.2815H7.28058H7.27966H7.27874H7.27781H7.27689H7.27596H7.27503H7.2741H7.27317H7.27224H7.27131H7.27037H7.26943H7.2685H7.26756H7.26662H7.26568H7.26473H7.26379H7.26284H7.2619H7.26095H7.26H7.25905H7.2581H7.25714H7.25619H7.25523H7.25428H7.25332H7.25236H7.2514H7.25044H7.24947H7.24851H7.24754H7.24658H7.24561H7.24464H7.24367H7.2427H7.24173H7.24076H7.23978H7.2388H7.23783H7.23685H7.23587H7.23489H7.23391H7.23293H7.23194H7.23096H7.22997H7.22899H7.228H7.22701H7.22602H7.22503H7.22404H7.22305H7.22205H7.22106H7.22006H7.21907H7.21807H7.21707H7.21607H7.21507H7.21407H7.21307H7.21206H7.21106H7.21005H7.20905H7.20804H7.20703H7.20602H7.20501H7.204H7.20299H7.20198H7.20096H7.19995H7.19893H7.19792H7.1969H7.19588H7.19486H7.19384H7.19282H7.1918H7.19078H7.18976H7.18873H7.18771H7.18668H7.18566H7.18463H7.1836H7.18258H7.18155H7.18052H7.17949H7.17846H7.17742H7.17639H7.17536H7.17432H7.17329H7.17225H7.17122H7.17018H7.16914H7.16811H7.16707H7.16603H7.16499H7.16395H7.1629H7.16186H7.16082H7.15978H7.15873H7.15769H7.15664H7.1556H7.15455H7.1535H7.15246H7.15141H7.15036H7.14931H7.14826H7.14721H7.14616H7.14511H7.14406H7.14301H7.14195H7.1409H7.13985H7.13879H7.13774H7.13668H7.13563H7.13457H7.13352H7.13246H7.1314H7.13034H7.12928H7.12823H7.12717H7.12611H7.12505H7.12399H7.12293H7.12187H7.1208H7.11974H7.11868H7.11762H7.11656H7.11549H7.11443H7.11337H7.1123H7.11124H7.11017H7.10911H7.10804H7.10698H7.10591H7.10484H7.10378H7.10271H7.10164H7.10058H7.09951H7.09844H7.09737H7.0963H7.09524H7.09417H7.0931H7.09203H7.09096H7.08989H7.08882H7.08775H7.08668H7.08561H7.08454H7.08347H7.0824H7.08133H7.08026H7.07919H7.07812H7.07705H7.07598H7.0749H7.07383H7.07276H7.07169H7.07062H7.06955H7.06848H7.0674H7.06633H7.06526H7.06419H7.06312H7.06205H7.06097H7.0599H7.05883H7.05776H7.05669H7.05561H7.05454H7.05347H7.0524H7.05133H7.05026H7.04918H7.04811H7.04704H7.04597H7.0449H7.04383H7.04276H7.04169H7.04062H7.03955H7.03848H7.03741H7.03633H7.03526H7.03419H7.03313H7.03206H7.03099H7.02992H7.02885H7.02778H7.02671H7.02564H7.02457H7.02351H7.02244H7.02137H7.0203H7.01924H7.01817H7.0171H7.01604H7.01497H7.01391H7.01284H7.01178H7.01071H7.00965H7.00858H7.00752H7.00645H7.00539H7.00433H7.00327H7.0022H7.00114H7.00008H6.99902H6.99796H6.9969H6.99584H6.99478H6.99372H6.99266H6.9916H6.99055H6.98949H6.98843H6.98738H6.98632H6.98526H6.98421H6.98315H6.9821H6.98105H6.97999H6.97894H6.97789H6.97684H6.97579H6.97473H6.97368H6.97264H6.97159H6.97054H6.96949H6.96844H6.9674H6.96635H6.9653H6.96426H6.96321H6.96217H6.96113H6.96008H6.95904H6.958H6.95696H6.95592H6.95488H6.95384H6.9528H6.95177H6.95073H6.94969H6.94866H6.94762H6.94659H6.94556H6.94452H6.94349H6.94246H6.94143H6.9404H6.93937H6.93834H6.93732H6.93629H6.93526H6.93424H6.93321H6.93219H6.93117H6.93015H6.92912H6.9281H6.92708H6.92607H6.92505H6.92403H6.92302H6.922H6.92099H6.91997H6.91896H6.91795H6.91694H6.91593H6.91492H6.91391H6.9129H6.9119H6.91089H6.90989H6.90888H6.90788H6.90688H6.90588H6.90488H6.90388H6.90288H6.90188H6.90089H6.89989H6.8989H6.89791H6.89692H6.89593H6.89494H6.89395H6.89296H6.89197H6.89099H6.89H6.88902H6.88804H6.88706H6.88608H6.8851H6.88412H6.88314H6.88217H6.88119H6.88022H6.87925H6.87828H6.87731H6.87634H6.87537H6.8744H6.87344H6.87247H6.87151H6.87055H6.86959H6.86863H6.86767H6.86671H6.86576H6.8648H6.86385H6.8629H6.86195H6.861H6.86005H6.8591H6.85816H6.85721H6.85627H6.85533H6.85439H6.85345H6.85251H6.85158H6.85064H6.84971H6.84878H6.84784H6.84691H6.84599H6.84506H6.84413H6.84321H6.84229H6.84137H6.84045H6.83953H6.83861H6.83769H6.83678H6.83587H6.83496H6.83405H6.83314H6.83223H6.83133H6.83042H6.82952H6.82862H6.82772H6.82682H6.82592H6.82503H6.82414H6.82324H6.82235H6.82146H6.82058H6.81969H6.81881H6.81792H6.81704H6.81616H6.81529H6.81441H6.81353H6.81266H6.81179H6.81092H6.81005H6.80919H6.80832H6.80746H6.8066H6.80574H6.80488C6.79896 5.11458 6.7928 5.11457 6.7864 5.11456C6.56166 5.11413 6.0443 5.11313 5.67367 5.60558C5.66213 5.62091 5.64128 5.64562 5.61359 5.67841C5.50331 5.80903 5.28463 6.06802 5.11457 6.3747C4.88406 6.79035 4.69512 7.34723 4.69512 8.09375C4.69512 8.86288 4.97098 9.58344 5.24548 10.111C5.48993 10.5808 5.75922 10.9459 5.89827 11.1017C6.14334 11.4728 7.8664 14.0633 10.5485 15.1843C10.9797 15.3978 11.4031 15.5486 11.7189 15.661C11.8426 15.7051 11.9497 15.7432 12.0344 15.777Z" fill="#FFBD4E" stroke="#FFBD4E"/>
</svg>
