<svg width="54" height="60" viewBox="0 0 54 60" fill="none" xmlns="http://www.w3.org/2000/svg">
<path d="M47.4167 6.56258H44.5V0.729248H38.6667V6.56258H15.3333V0.729248H9.5V6.56258H6.58333C3.34583 6.56258 0.779167 9.18758 0.779167 12.3959L0.75 53.2292C0.75 54.7763 1.36458 56.2601 2.45854 57.354C3.55251 58.448 5.03624 59.0626 6.58333 59.0626H47.4167C50.625 59.0626 53.25 56.4376 53.25 53.2292V12.3959C53.25 9.18758 50.625 6.56258 47.4167 6.56258ZM47.4167 53.2292H6.58333V24.0626H47.4167V53.2292ZM47.4167 18.2292H6.58333V12.3959H47.4167V18.2292ZM18.25 35.7292H12.4167V29.8959H18.25V35.7292ZM29.9167 35.7292H24.0833V29.8959H29.9167V35.7292ZM41.5833 35.7292H35.75V29.8959H41.5833V35.7292ZM18.25 47.3959H12.4167V41.5626H18.25V47.3959ZM29.9167 47.3959H24.0833V41.5626H29.9167V47.3959ZM41.5833 47.3959H35.75V41.5626H41.5833V47.3959Z" fill="#FFBD4E"/>
</svg>
