<svg width="33" height="33" viewBox="0 0 33 33" fill="none" xmlns="http://www.w3.org/2000/svg">
<g clip-path="url(#clip0_128_77)">
<path d="M32.6793 0.320877C32.2527 -0.106959 31.56 -0.106959 31.1328 0.320877L0.32137 31.1329C-0.105821 31.5595 -0.105821 32.2528 0.32137 32.68C0.534708 32.8934 0.814367 33 1.09461 33C1.37427 33 1.65457 32.8939 1.86784 32.6794L32.6793 1.86741C33.1065 1.4408 33.1065 0.748132 32.6793 0.320877Z" fill="#FFBD4E"/>
<path d="M12.7825 14.3293C12.9958 14.5432 13.2755 14.6499 13.5557 14.6499C13.836 14.6499 14.1157 14.5432 14.329 14.3293C14.7561 13.9027 14.7561 13.21 14.329 12.7827L1.86791 0.321609C1.4413 -0.106227 0.748625 -0.106227 0.32137 0.321609C-0.105821 0.74822 -0.105821 1.44089 0.32137 1.86815L12.7825 14.3293Z" fill="#FFBD4E"/>
<path d="M20.306 18.7595C19.8788 18.3311 19.1867 18.3317 18.7594 18.7589C18.3316 19.1861 18.3316 19.8782 18.7588 20.3055L31.1317 32.68C31.3462 32.8934 31.6252 33 31.9055 33C32.1852 33 32.4655 32.8939 32.6788 32.6806C33.106 32.254 33.106 31.5607 32.6788 31.1335L20.306 18.7595Z" fill="#FFBD4E"/>
</g>
<defs>
<clipPath id="clip0_128_77">
<rect width="33" height="33" fill="white"/>
</clipPath>
</defs>
</svg>
