<svg width="299" height="325" viewBox="0 0 299 325" fill="none" xmlns="http://www.w3.org/2000/svg">
<path d="M147.27 309.792C147.27 309.792 147.142 317.152 155.334 317.152C161.702 317.152 162.95 312.64 162.95 310.528C162.95 306.592 160.55 304.736 155.75 302.656C151.206 300.672 150.662 299.584 150.662 298.048C150.662 296.704 151.526 294.88 154.822 294.88C158.118 294.88 159.014 297.248 159.014 298.592H162.054C162.054 296.576 160.678 292.096 154.95 292.096C148.262 292.064 147.622 296.576 147.622 298.24C147.622 301.184 149.51 303.2 154.406 305.408C158.95 307.456 159.878 308.288 159.91 310.56C159.91 312.544 158.182 314.336 155.11 314.336C152.038 314.336 150.31 312.32 150.31 309.792H147.27Z" fill="#25616B"/>
<path d="M25.344 148.68L18.624 166.504L15.904 159.24L20.064 148.68H16.768L14.368 155.112L11.936 148.68H8.64L12.8 159.24L10.08 166.504L3.36 148.68H0.064L10.08 173.96L14.368 163.112L18.624 173.96L28.64 148.68H25.344Z" fill="#25616B"/>
<path d="M296.912 148.68H284.752V173H296.912V170.184H287.792V160.712H295.376V157.896H287.792V151.496H296.912V148.68Z" fill="#25616B"/>
<path d="M164.088 3.648H161.048V20.64L145.752 2.752V28H148.792V10.976L164.088 28.864V3.648Z" fill="#25616B"/>
<path d="M155.5 45L155.5 280" stroke="#675656" stroke-linecap="round"/>
<path d="M238.585 246.585L72.4149 80.4149" stroke="#2E2B2B" stroke-linecap="round"/>
<path d="M72.415 246.585L238.585 80.4149" stroke="#2E2B2B" stroke-linecap="round"/>
<path d="M273 163.5L38 163.5" stroke="#675656" stroke-linecap="round"/>
<circle cx="154.5" cy="162.5" r="75.5" fill="#8A8888" fill-opacity="0.18"/>
<circle cx="154.5" cy="162.5" r="75" stroke="#E7E7E7" stroke-opacity="0.08"/>
<path d="M155.281 129.768L176.137 163.284L155.281 196.801L132.193 163.284L155.281 129.768Z" fill="#FFBD4E" fill-opacity="0.89"/>
<circle cx="155.266" cy="163.268" r="5.5" fill="#FFFCF9"/>
</svg>
