<svg width="48" height="71" viewBox="0 0 48 71" fill="none" xmlns="http://www.w3.org/2000/svg">
<path d="M26.2145 12.7501C29.4899 12.7501 32.1429 10.0962 32.1429 6.82236C32.1429 3.54971 29.4899 0.89624 26.2145 0.89624C22.9446 0.89624 20.2881 3.54971 20.2881 6.82236C20.2881 10.0962 22.9446 12.7501 26.2145 12.7501Z" fill="#FFBD4E"/>
<path d="M47.3861 31.5323C47.3861 29.8431 46.0169 28.4739 44.3274 28.4739H33.9856L28.1531 20.1931L28.1722 20.0521C28.3804 18.4703 27.9496 16.8706 26.9775 15.6054C26.0048 14.3402 24.5714 13.5135 22.9893 13.3054C21.238 13.0772 19.5774 13.6412 18.33 14.6985V7.80981C18.33 6.62473 17.3692 5.66272 16.1817 5.66272H10.2324C9.04434 5.66272 8.08414 6.62473 8.08414 7.80981V33.3255C8.08414 36.4487 10.4735 38.9852 13.5178 39.2828L13.0582 40.3509L9.45497 53.9635L1.34053 64.8655C0.13144 66.4917 0.465502 68.7901 2.09322 70.0004C2.74987 70.4905 3.51933 70.727 4.28169 70.727C5.40258 70.727 6.5061 70.2158 7.22829 69.2477L15.7654 57.7783C16.045 57.4032 16.2507 56.9781 16.37 56.5265L18.8265 47.2516L25.5502 53.425L24.6326 66.806C24.4941 68.8287 26.0185 70.5801 28.0427 70.7187C28.126 70.7247 28.2124 70.7272 28.298 70.7272C30.21 70.7272 31.8228 69.2443 31.954 67.3077L32.9933 52.1656C33.0701 51.0534 32.6353 49.9649 31.8131 49.211L24.867 42.835L26.9801 29.1503L29.8995 33.2937C30.4735 34.1072 31.4055 34.5912 32.3992 34.5912H43.104L43.3062 69.6729C43.3062 70.3491 43.8538 70.8963 44.5296 70.8963C45.2061 70.8963 45.7531 70.349 45.7531 69.6729L45.5509 34.3282C46.6286 33.8561 47.3861 32.7846 47.3861 31.5323Z" fill="#FFBD4E"/>
</svg>
