<svg width="70" height="44" viewBox="0 0 70 44" fill="none" xmlns="http://www.w3.org/2000/svg">
<path d="M67.4985 36.2547H22.4526C21.5841 34.7418 19.9558 33.7206 18.086 33.7206C16.2162 33.7206 14.5883 34.7418 13.7194 36.2547H8.39429C6.52452 36.2547 5.00295 34.7332 5.00295 32.8634C5.00295 30.9936 6.52452 29.4721 8.39429 29.4721H40.0306C40.9352 30.8135 42.4687 31.696 44.2088 31.696C45.9485 31.696 47.482 30.8135 48.3869 29.4721H56.6521C60.8296 29.4721 64.2283 26.0734 64.2283 21.8959C64.2283 17.7185 60.8296 14.3198 56.6521 14.3198H19.835C17.9653 14.3198 16.4437 12.7982 16.4437 10.9285C16.4437 9.05868 17.9653 7.53712 19.835 7.53712H25.3646C26.2332 9.05001 27.8615 10.0713 29.7312 10.0713C31.601 10.0713 33.229 9.05001 34.0978 7.53712H49.2444C50.6259 7.53712 51.7459 6.41712 51.7459 5.03564C51.7459 3.65416 50.6259 2.53416 49.2444 2.53416H34.0978C33.229 1.02127 31.601 0 29.7316 0C27.8618 0 26.2338 1.02127 25.3653 2.53416H19.835C15.2066 2.53416 11.4408 6.30005 11.4408 10.9285C11.4408 15.5569 15.2066 19.3227 19.835 19.3227H56.6518C58.0706 19.3227 59.225 20.4771 59.225 21.8959C59.225 23.3148 58.0706 24.4691 56.6518 24.4691H48.7371C47.9216 22.7875 46.2029 21.6248 44.2084 21.6248C42.2139 21.6248 40.4952 22.7875 39.6798 24.4691H8.39429C3.76589 24.4691 0 28.235 0 32.8634C0 37.4918 3.76589 41.2577 8.39429 41.2577H13.7198C14.5886 42.7706 16.2166 43.7919 18.086 43.7919C19.9558 43.7919 21.5837 42.7706 22.4523 41.2577H67.4982C68.8797 41.2577 69.9997 40.1377 69.9997 38.7562C69.9997 37.3747 68.88 36.2547 67.4985 36.2547Z" fill="#FFBD4E"/>
</svg>
