<svg width="1917" height="181" viewBox="0 0 1917 181" fill="none" xmlns="http://www.w3.org/2000/svg">
<path d="M1 173.566C3.36351 175.671 9.73109 179.903 16.2933 179.998C22.8555 180.094 34.7843 175.75 39.9284 173.566C45.6286 171.541 59.8097 167.73 70.9321 168.683C82.0545 169.636 121.817 173.685 140.308 175.591C145.499 175.75 159.578 174.257 174.37 167.015C189.163 159.773 228.87 172.019 248.473 176.187C253.432 177.14 266.853 177.997 280.867 173.805C294.882 169.612 313.122 169.596 320.491 170.112C327.86 171.025 348.158 168.683 370.403 152.007C392.648 135.331 411.834 111.946 418.646 102.337C423.373 91.6174 436.72 68.7955 452.292 63.2688C467.863 57.742 491.683 66.4451 501.647 71.4875C512.77 71.2095 539.185 64.7934 555.869 41.3522C572.553 17.911 592.109 8.08026 599.802 6.09506C608.422 4.78483 630.621 9.61639 656.666 6.09506C680.44 2.88067 707.273 7.88337 707.273 12.408C707.273 23.8427 748.426 6.57313 756.628 23.8427C763.29 37.8671 807.235 38.9716 821.555 45.1654C860.206 68.0348 812.185 107.412 805.289 126.279C798.393 145.146 822.251 161.774 835.041 167.73C849.315 170.469 883.573 179.94 904.278 176.306C926.662 172.377 943.485 174.997 945.848 170.588C955.441 165.111 978.669 171.014 991.033 175.712C1005.77 181.312 1031.63 176.266 1039.69 170.588C1041.13 168.643 1063.01 176.215 1066.39 177.856C1074.73 181.906 1077.37 160.585 1085.71 153.319C1096.83 150.937 1097.72 119.825 1085.71 100.195C1073.7 80.5654 1082.28 72.7993 1082.24 70.4171C1082.28 63.7468 1048.45 50.8351 1060.69 43.9742C1072.92 37.1134 1067.68 21.1428 1065.69 18.1253C1064.58 12.3683 1068.44 1.71173 1092.8 5.14215C1117.16 8.57257 1130.76 6.21578 1136.6 4.54822C1143.08 2.69579 1156.56 -3.62449 1170.8 7.04793C1185.04 17.7204 1201.85 19.7532 1208.48 19.4356C1214.18 19.3562 1225.33 23.2948 1224.33 39.6846C1223.32 56.0744 1218.72 72.4006 1216.54 78.515C1215.8 83.5177 1217.43 96.5486 1229.89 108.65C1242.34 120.752 1241.47 139.024 1239.48 146.647C1237.81 151.531 1237.39 162.417 1249.07 166.896C1260.75 171.375 1286.29 173.765 1297.59 174.4C1299.26 174.519 1304.52 173.971 1312.19 170.827C1319.87 167.682 1334.3 172.258 1339.72 173.925C1348.43 176.784 1368 184.026 1382.12 176.307C1396.25 168.589 1412.43 170.59 1418.97 171.781C1423.83 173.369 1436.21 171.16 1446.22 177.735C1456.23 184.31 1482.46 174.043 1494.32 168.087C1500.16 167.412 1513.95 167.23 1522.41 171.899C1530.86 176.568 1560.36 176.546 1574.54 173.33C1582.65 172.655 1605.94 177.746 1628.49 171.899C1652.82 165.587 1681.46 172.853 1701.89 176.546C1734.15 185.956 1750.47 113.869 1767.93 105.198C1785.4 96.5263 1773.68 57.6307 1778.78 55.1691C1782.44 52.9854 1790.34 46.2595 1792.68 36.8259C1795.02 27.3922 1833.37 38.098 1836.75 33.6115C1842.78 33.135 1854.88 36.1843 1855.1 52.1929C1855.38 72.2037 1859.55 80.8989 1862.89 80.3033C1866.23 79.7078 1865.25 63.7468 1871.65 66.3672C1878.04 68.9877 1884.86 91.9763 1890.28 91.9763C1894.62 91.9763 1899.13 85.7825 1900.85 82.6855C1901.54 81.018 1905.54 78.064 1916 79.5886" stroke="#6C6C6C" stroke-width="2" stroke-dasharray="3 8"/>
</svg>
