<svg width="90" height="92" viewBox="0 0 90 92" fill="none" xmlns="http://www.w3.org/2000/svg">
<g filter="url(#filter0_b_92_233)">
<path d="M40.702 81.3451L41.4311 79.5318L42.7327 80.1888L44.0315 81.8624L45.6177 84.4082L46.1198 86.1523L46.659 87.404L46.1111 89.3839L44.6268 90.8423L42.2276 90.8358L41.4036 89.6975L40.6832 88.3159L40.1804 86.7897L40.1881 83.9578L40.702 81.3451Z" fill="white" fill-opacity="0.2"/>
<path d="M38.0985 80.1762L40.2043 78.0035L40.7163 76.0874L40.7208 74.4246L41.4511 72.159L41.9743 70.0441L41.9795 68.1545L41.4666 66.4147L40.7513 63.1626L41.4802 61.4261L43.1077 61.1647L44.5657 59.4693L46.1937 58.869L47.1345 57.2087L48.0416 56.2286L53.2302 51.0273L54.5986 49.5193L57.2268 47.8636L58.3947 46.2795L58.8531 44.0132L59.864 42.8822L61.7957 42.8874L63.9815 42.8933L65.7927 42.0668L65.798 40.1016C65.7994 39.5725 64.4443 38.9642 64.4462 38.2839C64.4477 37.7397 64.8512 37.1513 65.0529 36.9251C64.5761 36.697 63.5322 36.2407 63.1704 36.2397C62.8086 36.2387 62.3684 35.5825 62.1936 35.2545L64.005 34.2012L65.0637 32.9191L63.1812 32.2338L62.6593 30.1313L65.0684 31.1807L65.8221 31.1827L67.1788 31.1864L67.176 32.2446L68.002 33.3806L69.3587 33.3843L71.846 33.391L74.2557 34.229L73.7242 35.6636L71.8382 36.2632L71.3831 37.3201L71.8327 38.304L71.8308 38.9842L72.9598 39.5919L73.3401 38.308L73.7197 37.3265L74.9244 37.7832L74.9211 38.9926L75.7445 41.1112L76.6463 42.0962L77.2519 41.1153L76.653 39.602L77.2577 38.9989L77.6364 38.3197L76.6621 36.2763L79.1493 36.283L79.151 35.6783L79.984 34.2445L79.9862 33.4131L79.9893 32.2793L80.7459 31.2232L80.7487 30.1803L81.1287 29.0303L81.8089 28.3538L82.3403 26.9485L84.906 25.8385L86.3381 25.8424L85.3602 25.1133L86.9463 23.908L85.8939 22.8627L83.6327 22.8566L84.1644 21.3687L83.262 20.61L82.3575 20.6075L81.1495 21.3606L79.1898 21.3553L77.6803 22.0958L75.7912 23.8778L74.9588 25.0852L73.7509 25.8083L71.8646 26.5129L73.371 26.9242L73.3672 28.331L71.8579 29.0051L69.3706 28.9984L66.7326 28.9913L64.4732 28.3069L64.477 26.9001L64.4801 25.7832L63.651 25.781L62.6692 26.488L62.2124 28.3008L63.1901 28.9817L62.2074 30.13L59.8986 30.1238L57.278 28.9656L54.6543 28.9585L53.2934 27.6853L51.5093 27.6805L48.9928 26.8582L44.9028 25.7302L43.7537 23.791L43.7565 22.7485L43.7585 22.0039L45.7545 21.2647L46.5962 20.5106L44.9228 18.3583L42.3027 17.026L42.3041 16.4998L41.4646 16.4975L40.7382 15.7408L39.3699 14.9132L39.3725 13.95L40.743 13.9537L42.3128 13.2878L42.3144 12.7111L42.3169 11.7986L41.4807 10.5304L40.7584 8.28665L42.3306 6.73506L41.4957 5.02012L40.7763 1.66733L36.8408 1.65667L33.7201 2.39284L29.4861 2.90265L27.1114 2.37493L24.2917 1.62267L21.5409 2.88112L22.0824 4.96752L22.0778 6.68019L21.0044 9.0601L22.0675 10.4778L24.2643 11.7497L25.6711 13.2427L24.7782 13.9105L24.2536 15.6961L23.504 18.3003L22.0384 21.2004L20.5137 22.6856L17.7752 22.3803L16.4399 21.9299L15.6924 23.715L13.1656 24.5272L12.1231 25.6413L11.6745 26.7571L12.5599 28.8445L12.5541 31.0039L14.8493 33.4674L14.0303 34.2843L12.5452 34.2803L10.9837 35.0207L9.50074 34.2721L7.34955 33.4471L6.30577 35.008L4.30082 35.0026L2.44215 35.8911L4.29437 37.3854L5.92435 38.7301L9.11467 39.7068L9.11245 40.5259L7.33038 40.5211L5.9195 40.5172L7.32594 42.1592L8.73041 44.4714L10.9549 45.6689L13.1083 45.6747L15.6361 44.4901L16.385 42.1838L17.712 45.6872L17.7026 49.1869L18.7707 51.3493L18.7641 53.7652C19.3162 54.8801 20.4202 57.2261 20.4189 57.6908L20.4134 59.724L21.9284 61.8339L24.3755 67.2865L25.4515 71.0653L27.0388 73.1028L28.8433 75.286L30.28 79.5016L31.645 83.4989L33.3081 84.3748L35.4816 83.945L36.7181 81.8426L38.0953 81.338L38.0985 80.1762Z" fill="white" fill-opacity="0.2"/>
<path d="M40.702 81.3451L41.4311 79.5318L42.7327 80.1888L44.0315 81.8624L45.6177 84.4082L46.1198 86.1523L46.659 87.404L46.1111 89.3839L44.6268 90.8423L42.2276 90.8358L41.4036 89.6975L40.6832 88.3159L40.1804 86.7897L40.1881 83.9578L40.702 81.3451Z" stroke="white" stroke-opacity="0.3" stroke-width="2"/>
<path d="M38.0985 80.1762L40.2043 78.0035L40.7163 76.0874L40.7208 74.4246L41.4511 72.159L41.9743 70.0441L41.9795 68.1545L41.4666 66.4147L40.7513 63.1626L41.4802 61.4261L43.1077 61.1647L44.5657 59.4693L46.1937 58.869L47.1345 57.2087L48.0416 56.2286L53.2302 51.0273L54.5986 49.5193L57.2268 47.8636L58.3947 46.2795L58.8531 44.0132L59.864 42.8822L61.7957 42.8874L63.9815 42.8933L65.7927 42.0668L65.798 40.1016C65.7994 39.5725 64.4443 38.9642 64.4462 38.2839C64.4477 37.7397 64.8512 37.1513 65.0529 36.9251C64.5761 36.697 63.5322 36.2407 63.1704 36.2397C62.8086 36.2387 62.3684 35.5825 62.1936 35.2545L64.005 34.2012L65.0637 32.9191L63.1812 32.2338L62.6593 30.1313L65.0684 31.1807L65.8221 31.1827L67.1788 31.1864L67.176 32.2446L68.002 33.3806L69.3587 33.3843L71.846 33.391L74.2557 34.229L73.7242 35.6636L71.8382 36.2632L71.3831 37.3201L71.8327 38.304L71.8308 38.9842L72.9598 39.5919L73.3401 38.308L73.7197 37.3265L74.9244 37.7832L74.9211 38.9926L75.7445 41.1112L76.6463 42.0962L77.2519 41.1153L76.653 39.602L77.2577 38.9989L77.6364 38.3197L76.6621 36.2763L79.1493 36.283L79.151 35.6783L79.984 34.2445L79.9862 33.4131L79.9893 32.2793L80.7459 31.2232L80.7487 30.1803L81.1287 29.0303L81.8089 28.3538L82.3403 26.9485L84.906 25.8385L86.3381 25.8424L85.3602 25.1133L86.9463 23.908L85.8939 22.8627L83.6327 22.8566L84.1644 21.3687L83.262 20.61L82.3575 20.6075L81.1495 21.3606L79.1898 21.3553L77.6803 22.0958L75.7912 23.8778L74.9588 25.0852L73.7509 25.8083L71.8646 26.5129L73.371 26.9242L73.3672 28.331L71.8579 29.0051L69.3706 28.9984L66.7326 28.9913L64.4732 28.3069L64.477 26.9001L64.4801 25.7832L63.651 25.781L62.6692 26.488L62.2124 28.3008L63.1901 28.9817L62.2074 30.13L59.8986 30.1238L57.278 28.9656L54.6543 28.9585L53.2934 27.6853L51.5093 27.6805L48.9928 26.8582L44.9028 25.7302L43.7537 23.791L43.7565 22.7485L43.7585 22.0039L45.7545 21.2647L46.5962 20.5106L44.9228 18.3583L42.3027 17.026L42.3041 16.4998L41.4646 16.4975L40.7382 15.7408L39.3699 14.9132L39.3725 13.95L40.743 13.9537L42.3128 13.2878L42.3144 12.7111L42.3169 11.7986L41.4807 10.5304L40.7584 8.28665L42.3306 6.73506L41.4957 5.02012L40.7763 1.66733L36.8408 1.65667L33.7201 2.39284L29.4861 2.90265L27.1114 2.37493L24.2917 1.62267L21.5409 2.88112L22.0824 4.96752L22.0778 6.68019L21.0044 9.0601L22.0675 10.4778L24.2643 11.7497L25.6711 13.2427L24.7782 13.9105L24.2536 15.6961L23.504 18.3003L22.0384 21.2004L20.5137 22.6856L17.7752 22.3803L16.4399 21.9299L15.6924 23.715L13.1656 24.5272L12.1231 25.6413L11.6745 26.7571L12.5599 28.8445L12.5541 31.0039L14.8493 33.4674L14.0303 34.2843L12.5452 34.2803L10.9837 35.0207L9.50074 34.2721L7.34955 33.4471L6.30577 35.008L4.30082 35.0026L2.44215 35.8911L4.29437 37.3854L5.92435 38.7301L9.11467 39.7068L9.11245 40.5259L7.33038 40.5211L5.9195 40.5172L7.32594 42.1592L8.73041 44.4714L10.9549 45.6689L13.1083 45.6747L15.6361 44.4901L16.385 42.1838L17.712 45.6872L17.7026 49.1869L18.7707 51.3493L18.7641 53.7652C19.3162 54.8801 20.4202 57.2261 20.4189 57.6908L20.4134 59.724L21.9284 61.8339L24.3755 67.2865L25.4515 71.0653L27.0388 73.1028L28.8433 75.286L30.28 79.5016L31.645 83.4989L33.3081 84.3748L35.4816 83.945L36.7181 81.8426L38.0953 81.338L38.0985 80.1762Z" stroke="white" stroke-opacity="0.3" stroke-width="2"/>
</g>
<defs>
<filter id="filter0_b_92_233" x="-7.42041" y="-7.43616" width="104.784" height="107.28" filterUnits="userSpaceOnUse" color-interpolation-filters="sRGB">
<feFlood flood-opacity="0" result="BackgroundImageFix"/>
<feGaussianBlur in="BackgroundImageFix" stdDeviation="4"/>
<feComposite in2="SourceAlpha" operator="in" result="effect1_backgroundBlur_92_233"/>
<feBlend mode="normal" in="SourceGraphic" in2="effect1_backgroundBlur_92_233" result="shape"/>
</filter>
</defs>
</svg>
