<svg width="95" height="104" viewBox="0 0 95 104" fill="none" xmlns="http://www.w3.org/2000/svg">
<g filter="url(#filter0_b_92_230)">
<path d="M88.8048 41.0106L87.1538 43.8153L83.6795 48.2928V52.3718V56.0475L83.2118 57.8007L82.5571 60.4138V61.6344L81.6218 63.9817L80.0318 67.6435L79.5641 69.1458L78.2547 69.8969L77.0388 71.3992H74.607H71.9881L70.5852 73.1831L67.031 75.1548L63.851 77.2205L62.6351 79.7556V82.7601V85.483L61.5127 86.7036L60.0162 89.8959L58.8939 91.8676L57.865 91.2104L57.1168 92.9943L55.9009 93.5577L55.0591 95.0599V97.3133L54.4044 99.4729L52.6273 100.881L51.4114 98.8156L50.289 97.3133L46.9219 94.3088L44.3966 92.9943L42.8066 91.8676L40.0603 90.4592L43.2742 88.018L45.0513 85.483L48.7925 84.2624V82.7601V80.225L47.7637 79.0983V76.751L46.9219 75.1548C46.2984 75.061 45.0513 74.7793 45.0513 74.4037V72.432L44.3966 70.7419H42.0583L40.0603 69.8969L38.9855 67.6435L40.0603 65.1084L40.5619 63.0428L40.0603 59.6214L38.9855 57.8007V56.0475C38.2914 56.07 36.7688 56.1015 36.2314 56.0475C35.5597 55.9801 34.9551 55.7778 34.5521 55.508C34.2297 55.2923 33.8356 54.6539 33.6789 54.3617V52.8782V50.7204L32.6041 49.1694L31.395 48.2928H30.3202L28.2379 47.7533L26.8272 46.3373C25.9764 46.3597 24.2075 46.3912 23.9388 46.3373C23.6701 46.2833 22.7073 45.5056 22.2595 45.1235L21.8564 43.64V42.089V40.2009L20.7145 39.6615H19.0352L17.4902 40.6729L14.8033 42.561H12.1164L10.0744 41.2798V37.8549L8.99041 37.5225L8.14732 37.6736L6.6719 38.6106L5.70837 39.0338L4.14262 38.8222L3.05864 37.8549L1.97461 36.6761V35.5879L2.24566 34.1975L3.51028 32.535L4.62439 30.9028L4.86535 29.1194L8.32795 28.3033L11.7003 27.6383L14.6813 27.336L14.1315 25.9674L11.3376 24.31L10.5757 22.5252L11.3376 18.4456L9.81362 17.4258V15.2585V14.4936L11.3376 13.6012L10.5757 12.7088L8.92469 11.5614L10.5757 10.5416H15.1475L16.4175 11.5614L18.5764 13.6012L21.2433 12.7088L24.2912 10.5416L25.6881 9.26665L24.2912 8.62922L23.6562 7.35437L24.2912 5.56959L22.6402 4.67716H24.2912H27.2121L31.0218 3.7848L32.5458 2H34.0698L35.2127 4.67716V6.71693V9.90408L38.8955 10.5416L40.2926 9.26665L44.3564 9.90408L47.0233 9.26665L51.2142 9.90408L53.3731 8.62922L55.024 5.56959H56.2939L56.929 7.35437L58.4529 10.5416L59.0879 14.4936L60.4848 15.2585V18.4456L62.8977 17.4258L66.8346 18.4456L69.7722 19.9999L70.3904 21.1567V22.5252L73.0574 21.3778L75.8512 22.5252H81.5661L85.1219 25.0749L88.8048 27.4972L91.7257 28.6446L93.2496 31.1942V34.7639L91.7257 38.3335L88.8048 41.0106Z" fill="white" fill-opacity="0.7"/>
<path d="M88.8048 41.0106L87.1538 43.8153L83.6795 48.2928V52.3718V56.0475L83.2118 57.8007L82.5571 60.4138V61.6344L81.6218 63.9817L80.0318 67.6435L79.5641 69.1458L78.2547 69.8969L77.0388 71.3992H74.607H71.9881L70.5852 73.1831L67.031 75.1548L63.851 77.2205L62.6351 79.7556V82.7601V85.483L61.5127 86.7036L60.0162 89.8959L58.8939 91.8676L57.865 91.2104L57.1168 92.9943L55.9009 93.5577L55.0591 95.0599V97.3133L54.4044 99.4729L52.6273 100.881L51.4114 98.8156L50.289 97.3133L46.9219 94.3088L44.3966 92.9943L42.8066 91.8676L40.0603 90.4592L43.2742 88.018L45.0513 85.483L48.7925 84.2624V82.7601V80.225L47.7637 79.0983V76.751L46.9219 75.1548C46.2984 75.061 45.0513 74.7793 45.0513 74.4037V72.432L44.3966 70.7419H42.0583L40.0603 69.8969L38.9855 67.6435L40.0603 65.1084L40.5619 63.0428L40.0603 59.6214L38.9855 57.8007V56.0475C38.2914 56.07 36.7688 56.1015 36.2314 56.0475C35.5597 55.9801 34.9551 55.7778 34.5521 55.508C34.2297 55.2923 33.8356 54.6539 33.6789 54.3617V52.8782V50.7204L32.6041 49.1694L31.395 48.2928H30.3202L28.2379 47.7533L26.8272 46.3373C25.9764 46.3597 24.2075 46.3912 23.9388 46.3373C23.6701 46.2833 22.7073 45.5056 22.2595 45.1235L21.8564 43.64V42.089V40.2009L20.7145 39.6615H19.0352L17.4902 40.6729L14.8033 42.561H12.1164L10.0744 41.2798V37.8549L8.99041 37.5225L8.14732 37.6736L6.6719 38.6106L5.70837 39.0338L4.14262 38.8222L3.05864 37.8549L1.97461 36.6761V35.5879L2.24566 34.1975L3.51028 32.535L4.62439 30.9028L4.86535 29.1194L8.32795 28.3033L11.7003 27.6383L14.6813 27.336L14.1315 25.9674L11.3376 24.31L10.5757 22.5252L11.3376 18.4456L9.81362 17.4258V15.2585V14.4936L11.3376 13.6012L10.5757 12.7088L8.92469 11.5614L10.5757 10.5416H15.1475L16.4175 11.5614L18.5764 13.6012L21.2433 12.7088L24.2912 10.5416L25.6881 9.26665L24.2912 8.62922L23.6562 7.35437L24.2912 5.56959L22.6402 4.67716H24.2912H27.2121L31.0218 3.7848L32.5458 2H34.0698L35.2127 4.67716V6.71693V9.90408L38.8955 10.5416L40.2926 9.26665L44.3564 9.90408L47.0233 9.26665L51.2142 9.90408L53.3731 8.62922L55.024 5.56959H56.2939L56.929 7.35437L58.4529 10.5416L59.0879 14.4936L60.4848 15.2585V18.4456L62.8977 17.4258L66.8346 18.4456L69.7722 19.9999L70.3904 21.1567V22.5252L73.0574 21.3778L75.8512 22.5252H81.5661L85.1219 25.0749L88.8048 27.4972L91.7257 28.6446L93.2496 31.1942V34.7639L91.7257 38.3335L88.8048 41.0106Z" stroke="white" stroke-opacity="0.8" stroke-width="3"/>
</g>
<defs>
<filter id="filter0_b_92_230" x="-30.5254" y="-30.5" width="156.275" height="164.627" filterUnits="userSpaceOnUse" color-interpolation-filters="sRGB">
<feFlood flood-opacity="0" result="BackgroundImageFix"/>
<feGaussianBlur in="BackgroundImageFix" stdDeviation="15.5"/>
<feComposite in2="SourceAlpha" operator="in" result="effect1_backgroundBlur_92_230"/>
<feBlend mode="normal" in="SourceGraphic" in2="effect1_backgroundBlur_92_230" result="shape"/>
</filter>
</defs>
</svg>
