<svg width="100" height="77" viewBox="0 0 100 77" fill="none" xmlns="http://www.w3.org/2000/svg">
<g filter="url(#filter0_b_92_234)">
<path d="M8.32422 3.14137L2.19434 2.17004L3.06379 6.5733L5.07771 11.3875L5.7853 15.2609L8.32422 17.3503L9.63776 19.5497L10.0309 21.5841L8.83339 22.6838L7.36377 23.1237L7.03719 23.8935L8.32422 25.5094L13.2688 28.8106L14.7212 31.1031V35.5964L16.9906 37.6138L20.077 40.9151L21.6201 42.7491L22.891 41.3877L22.2665 39.8146L20.077 35.5964L18.3522 31.1031V28.8106L16.9906 27.0683L14.3338 22.2081L10.364 15.6473L9.63776 11.3875L10.364 8.11945H12.2702L14.3338 10.1835L15.2658 14.4136L18.3522 20.6492L21.6201 25.8762L24.7973 28.8106L23.8895 29.911V31.5529L27.4298 34.2241L27.7929 35.5964L29.9588 37.6138L34.4195 44.2163L35.5996 49.0156L34.4195 51.8274V53.8323L35.5996 56.4654L38.7767 58.3278L44.5864 62.0062L53.3008 66.7053L59.2658 69.2819L63.7328 69.8881L66.6175 68.6756H69.4682L73.069 70.8733L75.4696 73.753L78.8972 75.9507H80.7409V72.3889L82.5209 68.6756H84.6825L87.3974 66.7053L84.6825 65.1896L85.3818 62.9162L88.1476 63.4467L91.2306 61.4763L94.2186 59.805L94.7272 55.5021L97.0795 51.5845L98.0331 49.3367L97.0795 48.3092L94.7272 47.9239L92.1842 48.3092L91.2306 49.0156H89.1963L86.7804 49.3367L85.3818 50.4285L84.6825 52.6121L83.4746 55.5021L82.5209 57.6856L80.7409 59.0985H78.8972L76.0364 59.805L71.5862 60.7683L70.1875 59.805L67.7081 58.3278L65.9916 56.4654L64.2115 53.8323L62.6857 51.135L61.605 46.6394L62.1703 41.3877V38.3523L63.7328 34.2241L64.5742 31.5529V28.0318L66.4972 23.6608H63.7328L58.5645 24.6322L57.1222 21.3539L55.079 18.3185L52.4347 15.6473H49.1895H45.5838H42.4588L41.377 13.0975L36.9299 10.1835L34.2857 8.11945H29.9588L26.5934 9.09079L22.2665 10.1835L17.6991 8.11945L14.3338 5.32686L8.32422 3.14137Z" fill="white" fill-opacity="0.2"/>
<path d="M8.32422 3.14137L2.19434 2.17004L3.06379 6.5733L5.07771 11.3875L5.7853 15.2609L8.32422 17.3503L9.63776 19.5497L10.0309 21.5841L8.83339 22.6838L7.36377 23.1237L7.03719 23.8935L8.32422 25.5094L13.2688 28.8106L14.7212 31.1031V35.5964L16.9906 37.6138L20.077 40.9151L21.6201 42.7491L22.891 41.3877L22.2665 39.8146L20.077 35.5964L18.3522 31.1031V28.8106L16.9906 27.0683L14.3338 22.2081L10.364 15.6473L9.63776 11.3875L10.364 8.11945H12.2702L14.3338 10.1835L15.2658 14.4136L18.3522 20.6492L21.6201 25.8762L24.7973 28.8106L23.8895 29.911V31.5529L27.4298 34.2241L27.7929 35.5964L29.9588 37.6138L34.4195 44.2163L35.5996 49.0156L34.4195 51.8274V53.8323L35.5996 56.4654L38.7767 58.3278L44.5864 62.0062L53.3008 66.7053L59.2658 69.2819L63.7328 69.8881L66.6175 68.6756H69.4682L73.069 70.8733L75.4696 73.753L78.8972 75.9507H80.7409V72.3889L82.5209 68.6756H84.6825L87.3974 66.7053L84.6825 65.1896L85.3818 62.9162L88.1476 63.4467L91.2306 61.4763L94.2186 59.805L94.7272 55.5021L97.0795 51.5845L98.0331 49.3367L97.0795 48.3092L94.7272 47.9239L92.1842 48.3092L91.2306 49.0156H89.1963L86.7804 49.3367L85.3818 50.4285L84.6825 52.6121L83.4746 55.5021L82.5209 57.6856L80.7409 59.0985H78.8972L76.0364 59.805L71.5862 60.7683L70.1875 59.805L67.7081 58.3278L65.9916 56.4654L64.2115 53.8323L62.6857 51.135L61.605 46.6394L62.1703 41.3877V38.3523L63.7328 34.2241L64.5742 31.5529V28.0318L66.4972 23.6608H63.7328L58.5645 24.6322L57.1222 21.3539L55.079 18.3185L52.4347 15.6473H49.1895H45.5838H42.4588L41.377 13.0975L36.9299 10.1835L34.2857 8.11945H29.9588L26.5934 9.09079L22.2665 10.1835L17.6991 8.11945L14.3338 5.32686L8.32422 3.14137Z" stroke="white" stroke-opacity="0.3" stroke-width="2"/>
</g>
<defs>
<filter id="filter0_b_92_234" x="-10.0645" y="-10.0419" width="120.271" height="97.9926" filterUnits="userSpaceOnUse" color-interpolation-filters="sRGB">
<feFlood flood-opacity="0" result="BackgroundImageFix"/>
<feGaussianBlur in="BackgroundImageFix" stdDeviation="5.5"/>
<feComposite in2="SourceAlpha" operator="in" result="effect1_backgroundBlur_92_234"/>
<feBlend mode="normal" in="SourceGraphic" in2="effect1_backgroundBlur_92_234" result="shape"/>
</filter>
</defs>
</svg>
