<svg width="99" height="77" viewBox="0 0 99 77" fill="none" xmlns="http://www.w3.org/2000/svg">
<g filter="url(#filter0_b_92_231)">
<path d="M7.55811 3.14137L1.42822 2.17004L2.29768 6.5733L4.31159 11.3875L5.01919 15.2609L7.55811 17.3503L8.87164 19.5497L9.26474 21.5841L8.06727 22.6838L6.59766 23.1237L6.27108 23.8935L7.55811 25.5094L12.5027 28.8106L13.9551 31.1031V35.5964L16.2245 37.6138L19.3108 40.9151L20.854 42.7491L22.1249 41.3877L21.5003 39.8146L19.3108 35.5964L17.5861 31.1031V28.8106L16.2245 27.0683L13.5677 22.2081L9.59785 15.6473L8.87164 11.3875L9.59785 8.11945H11.5041L13.5677 10.1835L14.4997 14.4136L17.5861 20.6492L20.854 25.8762L24.0312 28.8106L23.1234 29.911V31.5529L26.6637 34.2241L27.0268 35.5964L29.1927 37.6138L33.6534 44.2163L34.8335 49.0156L33.6534 51.8274V53.8323L34.8335 56.4654L38.0106 58.3278L43.8203 62.0062L52.5347 66.7053L58.4997 69.2819L62.9667 69.8881L65.8514 68.6756H68.7021L72.3029 70.8733L74.7035 73.753L78.1311 75.9507H79.9747V72.3889L81.7548 68.6756H83.9164L86.6313 66.7053L83.9164 65.1896L84.6157 62.9162L87.3814 63.4467L90.4645 61.4763L93.4525 59.805L93.9611 55.5021L96.3134 51.5845L97.267 49.3367L96.3134 48.3092L93.9611 47.9239L91.4181 48.3092L90.4645 49.0156H88.4301L86.0143 49.3367L84.6157 50.4285L83.9164 52.6121L82.7084 55.5021L81.7548 57.6856L79.9747 59.0985H78.1311L75.2702 59.805L70.82 60.7683L69.4214 59.805L66.942 58.3278L65.2255 56.4654L63.4454 53.8323L61.9196 51.135L60.8389 46.6394L61.4042 41.3877V38.3523L62.9667 34.2241L63.808 31.5529V28.0318L65.7311 23.6608H62.9667L57.7984 24.6322L56.3561 21.3539L54.3128 18.3185L51.6686 15.6473H48.4234H44.8177H41.6927L40.6109 13.0975L36.1638 10.1835L33.5196 8.11945H29.1927L25.8273 9.09079L21.5003 10.1835L16.933 8.11945L13.5677 5.32686L7.55811 3.14137Z" fill="white" fill-opacity="0.4"/>
<path d="M7.55811 3.14137L1.42822 2.17004L2.29768 6.5733L4.31159 11.3875L5.01919 15.2609L7.55811 17.3503L8.87164 19.5497L9.26474 21.5841L8.06727 22.6838L6.59766 23.1237L6.27108 23.8935L7.55811 25.5094L12.5027 28.8106L13.9551 31.1031V35.5964L16.2245 37.6138L19.3108 40.9151L20.854 42.7491L22.1249 41.3877L21.5003 39.8146L19.3108 35.5964L17.5861 31.1031V28.8106L16.2245 27.0683L13.5677 22.2081L9.59785 15.6473L8.87164 11.3875L9.59785 8.11945H11.5041L13.5677 10.1835L14.4997 14.4136L17.5861 20.6492L20.854 25.8762L24.0312 28.8106L23.1234 29.911V31.5529L26.6637 34.2241L27.0268 35.5964L29.1927 37.6138L33.6534 44.2163L34.8335 49.0156L33.6534 51.8274V53.8323L34.8335 56.4654L38.0106 58.3278L43.8203 62.0062L52.5347 66.7053L58.4997 69.2819L62.9667 69.8881L65.8514 68.6756H68.7021L72.3029 70.8733L74.7035 73.753L78.1311 75.9507H79.9747V72.3889L81.7548 68.6756H83.9164L86.6313 66.7053L83.9164 65.1896L84.6157 62.9162L87.3814 63.4467L90.4645 61.4763L93.4525 59.805L93.9611 55.5021L96.3134 51.5845L97.267 49.3367L96.3134 48.3092L93.9611 47.9239L91.4181 48.3092L90.4645 49.0156H88.4301L86.0143 49.3367L84.6157 50.4285L83.9164 52.6121L82.7084 55.5021L81.7548 57.6856L79.9747 59.0985H78.1311L75.2702 59.805L70.82 60.7683L69.4214 59.805L66.942 58.3278L65.2255 56.4654L63.4454 53.8323L61.9196 51.135L60.8389 46.6394L61.4042 41.3877V38.3523L62.9667 34.2241L63.808 31.5529V28.0318L65.7311 23.6608H62.9667L57.7984 24.6322L56.3561 21.3539L54.3128 18.3185L51.6686 15.6473H48.4234H44.8177H41.6927L40.6109 13.0975L36.1638 10.1835L33.5196 8.11945H29.1927L25.8273 9.09079L21.5003 10.1835L16.933 8.11945L13.5677 5.32686L7.55811 3.14137Z" stroke="white" stroke-opacity="0.5" stroke-width="2"/>
</g>
<defs>
<filter id="filter0_b_92_231" x="-10.8306" y="-10.0419" width="120.271" height="97.9926" filterUnits="userSpaceOnUse" color-interpolation-filters="sRGB">
<feFlood flood-opacity="0" result="BackgroundImageFix"/>
<feGaussianBlur in="BackgroundImageFix" stdDeviation="5.5"/>
<feComposite in2="SourceAlpha" operator="in" result="effect1_backgroundBlur_92_231"/>
<feBlend mode="normal" in="SourceGraphic" in2="effect1_backgroundBlur_92_231" result="shape"/>
</filter>
</defs>
</svg>
