<svg width="90" height="92" viewBox="0 0 90 92" fill="none" xmlns="http://www.w3.org/2000/svg">
<g filter="url(#filter0_b_92_232)">
<path d="M40.7768 81.3451L41.5058 79.5318L42.8074 80.1888L44.1063 81.8624L45.6924 84.4082L46.1945 86.1523L46.7337 87.404L46.1858 89.3839L44.7015 90.8423L42.3023 90.8358L41.4783 89.6975L40.7579 88.3159L40.2552 86.7897L40.2628 83.9578L40.7768 81.3451Z" fill="white" fill-opacity="0.5"/>
<path d="M38.1732 80.1762L40.279 78.0035L40.791 76.0874L40.7955 74.4246L41.5258 72.159L42.0491 70.0441L42.0542 68.1545L41.5414 66.4147L40.826 63.1626L41.5549 61.4261L43.1824 61.1647L44.6404 59.4693L46.2684 58.869L47.2092 57.2087L48.1163 56.2286L53.3049 51.0273L54.6733 49.5193L57.3015 47.8636L58.4694 46.2795L58.9278 44.0132L59.9387 42.8822L61.8704 42.8874L64.0562 42.8933L65.8674 42.0668L65.8727 40.1016C65.8741 39.5725 64.5191 38.9642 64.5209 38.2839C64.5224 37.7397 64.926 37.1513 65.1276 36.9251C64.6508 36.697 63.6069 36.2407 63.2451 36.2397C62.8833 36.2387 62.4431 35.5825 62.2683 35.2545L64.0797 34.2012L65.1384 32.9191L63.2559 32.2338L62.734 30.1313L65.1431 31.1807L65.8968 31.1827L67.2536 31.1864L67.2507 32.2446L68.0767 33.3806L69.4334 33.3843L71.9207 33.391L74.3304 34.229L73.7989 35.6636L71.9129 36.2632L71.4578 37.3201L71.9074 38.304L71.9056 38.9842L73.0345 39.5919L73.4148 38.308L73.7944 37.3265L74.9991 37.7832L74.9958 38.9926L75.8192 41.1112L76.721 42.0962L77.3266 41.1153L76.7278 39.602L77.3324 38.9989L77.7111 38.3197L76.7368 36.2763L79.2241 36.283L79.2257 35.6783L80.0587 34.2445L80.0609 33.4131L80.064 32.2793L80.8206 31.2232L80.8234 30.1803L81.2034 29.0303L81.8836 28.3538L82.415 26.9485L84.9807 25.8385L86.4128 25.8424L85.4349 25.1133L87.021 23.908L85.9686 22.8627L83.7074 22.8566L84.2391 21.3687L83.3367 20.61L82.4322 20.6075L81.2242 21.3606L79.2645 21.3553L77.755 22.0958L75.8659 23.8778L75.0335 25.0852L73.8256 25.8083L71.9393 26.5129L73.4457 26.9242L73.4419 28.331L71.9326 29.0051L69.4453 28.9984L66.8073 28.9913L64.5479 28.3069L64.5517 26.9001L64.5548 25.7832L63.7257 25.781L62.7439 26.488L62.2871 28.3008L63.2648 28.9817L62.2821 30.13L59.9733 30.1238L57.3527 28.9656L54.729 28.9585L53.3681 27.6853L51.584 27.6805L49.0675 26.8582L44.9776 25.7302L43.8284 23.791L43.8312 22.7485L43.8332 22.0039L45.8292 21.2647L46.6709 20.5106L44.9975 18.3583L42.3774 17.026L42.3788 16.4998L41.5393 16.4975L40.8129 15.7408L39.4446 14.9132L39.4472 13.95L40.8177 13.9537L42.3876 13.2878L42.3891 12.7111L42.3916 11.7986L41.5554 10.5304L40.8331 8.28665L42.4053 6.73506L41.5704 5.02012L40.851 1.66733L36.9155 1.65667L33.7948 2.39284L29.5608 2.90265L27.1861 2.37493L24.3664 1.62267L21.6156 2.88112L22.1571 4.96752L22.1525 6.68019L21.0791 9.0601L22.1422 10.4778L24.339 11.7497L25.7458 13.2427L24.8529 13.9105L24.3283 15.6961L23.5787 18.3003L22.1132 21.2004L20.5884 22.6856L17.8499 22.3803L16.5146 21.9299L15.7671 23.715L13.2403 24.5272L12.1978 25.6413L11.7492 26.7571L12.6346 28.8445L12.6288 31.0039L14.924 33.4674L14.105 34.2843L12.6199 34.2803L11.0584 35.0207L9.57545 34.2721L7.42425 33.4471L6.38048 35.008L4.37553 35.0026L2.51686 35.8911L4.36907 37.3854L5.99905 38.7301L9.18938 39.7068L9.18716 40.5259L7.40509 40.5211L5.99421 40.5172L7.40065 42.1592L8.80511 44.4714L11.0296 45.6689L13.183 45.6747L15.7109 44.4901L16.4597 42.1838L17.7867 45.6872L17.7773 49.1869L18.8454 51.3493L18.8388 53.7652C19.391 54.8801 20.4949 57.2261 20.4936 57.6908L20.4881 59.724L22.0031 61.8339L24.4502 67.2865L25.5262 71.0653L27.1136 73.1028L28.918 75.286L30.3547 79.5016L31.7198 83.4989L33.3828 84.3748L35.5563 83.945L36.7928 81.8426L38.17 81.338L38.1732 80.1762Z" fill="white" fill-opacity="0.5"/>
<path d="M40.7768 81.3451L41.5058 79.5318L42.8074 80.1888L44.1063 81.8624L45.6924 84.4082L46.1945 86.1523L46.7337 87.404L46.1858 89.3839L44.7015 90.8423L42.3023 90.8358L41.4783 89.6975L40.7579 88.3159L40.2552 86.7897L40.2628 83.9578L40.7768 81.3451Z" stroke="white" stroke-opacity="0.6" stroke-width="2"/>
<path d="M38.1732 80.1762L40.279 78.0035L40.791 76.0874L40.7955 74.4246L41.5258 72.159L42.0491 70.0441L42.0542 68.1545L41.5414 66.4147L40.826 63.1626L41.5549 61.4261L43.1824 61.1647L44.6404 59.4693L46.2684 58.869L47.2092 57.2087L48.1163 56.2286L53.3049 51.0273L54.6733 49.5193L57.3015 47.8636L58.4694 46.2795L58.9278 44.0132L59.9387 42.8822L61.8704 42.8874L64.0562 42.8933L65.8674 42.0668L65.8727 40.1016C65.8741 39.5725 64.5191 38.9642 64.5209 38.2839C64.5224 37.7397 64.926 37.1513 65.1276 36.9251C64.6508 36.697 63.6069 36.2407 63.2451 36.2397C62.8833 36.2387 62.4431 35.5825 62.2683 35.2545L64.0797 34.2012L65.1384 32.9191L63.2559 32.2338L62.734 30.1313L65.1431 31.1807L65.8968 31.1827L67.2536 31.1864L67.2507 32.2446L68.0767 33.3806L69.4334 33.3843L71.9207 33.391L74.3304 34.229L73.7989 35.6636L71.9129 36.2632L71.4578 37.3201L71.9074 38.304L71.9056 38.9842L73.0345 39.5919L73.4148 38.308L73.7944 37.3265L74.9991 37.7832L74.9958 38.9926L75.8192 41.1112L76.721 42.0962L77.3266 41.1153L76.7278 39.602L77.3324 38.9989L77.7111 38.3197L76.7368 36.2763L79.2241 36.283L79.2257 35.6783L80.0587 34.2445L80.0609 33.4131L80.064 32.2793L80.8206 31.2232L80.8234 30.1803L81.2034 29.0303L81.8836 28.3538L82.415 26.9485L84.9807 25.8385L86.4128 25.8424L85.4349 25.1133L87.021 23.908L85.9686 22.8627L83.7074 22.8566L84.2391 21.3687L83.3367 20.61L82.4322 20.6075L81.2242 21.3606L79.2645 21.3553L77.755 22.0958L75.8659 23.8778L75.0335 25.0852L73.8256 25.8083L71.9393 26.5129L73.4457 26.9242L73.4419 28.331L71.9326 29.0051L69.4453 28.9984L66.8073 28.9913L64.5479 28.3069L64.5517 26.9001L64.5548 25.7832L63.7257 25.781L62.7439 26.488L62.2871 28.3008L63.2648 28.9817L62.2821 30.13L59.9733 30.1238L57.3527 28.9656L54.729 28.9585L53.3681 27.6853L51.584 27.6805L49.0675 26.8582L44.9776 25.7302L43.8284 23.791L43.8312 22.7485L43.8332 22.0039L45.8292 21.2647L46.6709 20.5106L44.9975 18.3583L42.3774 17.026L42.3788 16.4998L41.5393 16.4975L40.8129 15.7408L39.4446 14.9132L39.4472 13.95L40.8177 13.9537L42.3876 13.2878L42.3891 12.7111L42.3916 11.7986L41.5554 10.5304L40.8331 8.28665L42.4053 6.73506L41.5704 5.02012L40.851 1.66733L36.9155 1.65667L33.7948 2.39284L29.5608 2.90265L27.1861 2.37493L24.3664 1.62267L21.6156 2.88112L22.1571 4.96752L22.1525 6.68019L21.0791 9.0601L22.1422 10.4778L24.339 11.7497L25.7458 13.2427L24.8529 13.9105L24.3283 15.6961L23.5787 18.3003L22.1132 21.2004L20.5884 22.6856L17.8499 22.3803L16.5146 21.9299L15.7671 23.715L13.2403 24.5272L12.1978 25.6413L11.7492 26.7571L12.6346 28.8445L12.6288 31.0039L14.924 33.4674L14.105 34.2843L12.6199 34.2803L11.0584 35.0207L9.57545 34.2721L7.42425 33.4471L6.38048 35.008L4.37553 35.0026L2.51686 35.8911L4.36907 37.3854L5.99905 38.7301L9.18938 39.7068L9.18716 40.5259L7.40509 40.5211L5.99421 40.5172L7.40065 42.1592L8.80511 44.4714L11.0296 45.6689L13.183 45.6747L15.7109 44.4901L16.4597 42.1838L17.7867 45.6872L17.7773 49.1869L18.8454 51.3493L18.8388 53.7652C19.391 54.8801 20.4949 57.2261 20.4936 57.6908L20.4881 59.724L22.0031 61.8339L24.4502 67.2865L25.5262 71.0653L27.1136 73.1028L28.918 75.286L30.3547 79.5016L31.7198 83.4989L33.3828 84.3748L35.5563 83.945L36.7928 81.8426L38.17 81.338L38.1732 80.1762Z" stroke="white" stroke-opacity="0.6" stroke-width="2"/>
</g>
<defs>
<filter id="filter0_b_92_232" x="-7.3457" y="-7.43616" width="104.784" height="107.28" filterUnits="userSpaceOnUse" color-interpolation-filters="sRGB">
<feFlood flood-opacity="0" result="BackgroundImageFix"/>
<feGaussianBlur in="BackgroundImageFix" stdDeviation="4"/>
<feComposite in2="SourceAlpha" operator="in" result="effect1_backgroundBlur_92_232"/>
<feBlend mode="normal" in="SourceGraphic" in2="effect1_backgroundBlur_92_232" result="shape"/>
</filter>
</defs>
</svg>
